<svg id="visual" viewBox="0 0 1920 1080" width="1920" height="1080" xmlns="http://www.w3.org/2000/svg" xmlns:xlink="http://www.w3.org/1999/xlink" version="1.1"><rect x="0" y="0" width="1920" height="1080" fill="#001122"></rect><defs><linearGradient id="grad1_0" x1="43.8%" y1="0%" x2="100%" y2="100%"><stop offset="14.444444444444446%" stop-color="#ff6f61" stop-opacity="1"></stop><stop offset="85.55555555555554%" stop-color="#ff6f61" stop-opacity="1"></stop></linearGradient></defs><defs><linearGradient id="grad1_1" x1="43.8%" y1="0%" x2="100%" y2="100%"><stop offset="14.444444444444446%" stop-color="#ff6f61" stop-opacity="1"></stop><stop offset="85.55555555555554%" stop-color="#c44c74" stop-opacity="1"></stop></linearGradient></defs><defs><linearGradient id="grad1_2" x1="43.8%" y1="0%" x2="100%" y2="100%"><stop offset="14.444444444444446%" stop-color="#783b6f" stop-opacity="1"></stop><stop offset="85.55555555555554%" stop-color="#c44c74" stop-opacity="1"></stop></linearGradient></defs><defs><linearGradient id="grad1_3" x1="43.8%" y1="0%" x2="100%" y2="100%"><stop offset="14.444444444444446%" stop-color="#783b6f" stop-opacity="1"></stop><stop offset="85.55555555555554%" stop-color="#302a50" stop-opacity="1"></stop></linearGradient></defs><defs><linearGradient id="grad1_4" x1="43.8%" y1="0%" x2="100%" y2="100%"><stop offset="14.444444444444446%" stop-color="#001122" stop-opacity="1"></stop><stop offset="85.55555555555554%" stop-color="#302a50" stop-opacity="1"></stop></linearGradient></defs><defs><linearGradient id="grad2_0" x1="0%" y1="0%" x2="56.3%" y2="100%"><stop offset="14.444444444444446%" stop-color="#ff6f61" stop-opacity="1"></stop><stop offset="85.55555555555554%" stop-color="#ff6f61" stop-opacity="1"></stop></linearGradient></defs><defs><linearGradient id="grad2_1" x1="0%" y1="0%" x2="56.3%" y2="100%"><stop offset="14.444444444444446%" stop-color="#c44c74" stop-opacity="1"></stop><stop offset="85.55555555555554%" stop-color="#ff6f61" stop-opacity="1"></stop></linearGradient></defs><defs><linearGradient id="grad2_2" x1="0%" y1="0%" x2="56.3%" y2="100%"><stop offset="14.444444444444446%" stop-color="#c44c74" stop-opacity="1"></stop><stop offset="85.55555555555554%" stop-color="#783b6f" stop-opacity="1"></stop></linearGradient></defs><defs><linearGradient id="grad2_3" x1="0%" y1="0%" x2="56.3%" y2="100%"><stop offset="14.444444444444446%" stop-color="#302a50" stop-opacity="1"></stop><stop offset="85.55555555555554%" stop-color="#783b6f" stop-opacity="1"></stop></linearGradient></defs><defs><linearGradient id="grad2_4" x1="0%" y1="0%" x2="56.3%" y2="100%"><stop offset="14.444444444444446%" stop-color="#302a50" stop-opacity="1"></stop><stop offset="85.55555555555554%" stop-color="#001122" stop-opacity="1"></stop></linearGradient></defs><g transform="translate(1920, 0)"><path d="M0 998C-85.5 1036.2 -171.1 1074.5 -239.4 1049C-307.8 1023.6 -358.9 934.5 -430 892.9C-501.1 851.2 -592.1 857 -652.8 818.6C-713.5 780.2 -743.8 697.6 -795.9 634.7C-848 571.8 -922 528.7 -965.8 465.1C-1009.7 401.6 -1023.3 317.7 -1037.3 236.8C-1051.3 155.8 -1065.7 77.9 -1080 0L0 0Z" fill="#141f3a"></path><path d="M0 798.4C-68.4 829 -136.9 859.6 -191.5 839.2C-246.2 818.9 -287.1 747.6 -344 714.3C-400.9 681 -473.7 685.6 -522.2 654.9C-570.8 624.1 -595 558.1 -636.7 507.8C-678.4 457.5 -737.6 422.9 -772.7 372.1C-807.7 321.3 -818.7 254.1 -829.9 189.4C-841.1 124.7 -852.5 62.3 -864 0L0 0Z" fill="#523463"></path><path d="M0 598.8C-51.3 621.7 -102.7 644.7 -143.7 629.4C-184.7 614.2 -215.3 560.7 -258 535.7C-300.6 510.7 -355.3 514.2 -391.7 491.1C-428.1 468.1 -446.3 418.6 -477.5 380.8C-508.8 343.1 -553.2 317.2 -579.5 279.1C-605.8 241 -614 190.6 -622.4 142.1C-630.8 93.5 -639.4 46.8 -648 0L0 0Z" fill="#9f4275"></path><path d="M0 399.2C-34.2 414.5 -68.4 429.8 -95.8 419.6C-123.1 409.4 -143.6 373.8 -172 357.1C-200.4 340.5 -236.8 342.8 -261.1 327.4C-285.4 312.1 -297.5 279 -318.4 253.9C-339.2 228.7 -368.8 211.5 -386.3 186C-403.9 160.6 -409.3 127.1 -414.9 94.7C-420.5 62.3 -426.3 31.2 -432 0L0 0Z" fill="#e45a6d"></path><path d="M0 199.6C-17.1 207.2 -34.2 214.9 -47.9 209.8C-61.6 204.7 -71.8 186.9 -86 178.6C-100.2 170.2 -118.4 171.4 -130.6 163.7C-142.7 156 -148.8 139.5 -159.2 126.9C-169.6 114.4 -184.4 105.7 -193.2 93C-201.9 80.3 -204.7 63.5 -207.5 47.4C-210.3 31.2 -213.1 15.6 -216 0L0 0Z" fill="#ff6f61"></path></g><g transform="translate(0, 1080)"><path d="M0 -1030C76.9 -1029.8 153.7 -1029.6 233 -1020.7C312.2 -1011.9 393.9 -994.5 460.4 -955.9C526.8 -917.3 578.1 -857.6 646.6 -810.8C715 -763.9 800.6 -730 831.1 -662.8C861.6 -595.5 836.9 -495 877.5 -422.6C918.2 -350.2 1024.1 -306.1 1052.9 -240.3C1081.7 -174.6 1033.4 -87.3 985 0L0 0Z" fill="#141f3a"></path><path d="M0 -824C61.5 -823.8 123 -823.7 186.4 -816.6C249.8 -809.5 315.1 -795.6 368.3 -764.7C421.5 -733.9 462.5 -686.1 517.2 -648.6C572 -611.1 640.5 -584 664.9 -530.2C689.2 -476.4 669.5 -396 702 -338.1C734.5 -280.2 819.3 -244.8 842.3 -192.3C865.4 -139.7 826.7 -69.8 788 0L0 0Z" fill="#523463"></path><path d="M0 -618C46.1 -617.9 92.2 -617.7 139.8 -612.4C187.3 -607.2 236.3 -596.7 276.2 -573.6C316.1 -550.4 346.9 -514.6 387.9 -486.5C429 -458.4 480.4 -438 498.7 -397.7C516.9 -357.3 502.1 -297 526.5 -253.6C550.9 -210.1 614.5 -183.6 631.8 -144.2C649 -104.8 620 -52.4 591 0L0 0Z" fill="#9f4275"></path><path d="M0 -412C30.7 -411.9 61.5 -411.8 93.2 -408.3C124.9 -404.8 157.6 -397.8 184.1 -382.4C210.7 -366.9 231.2 -343 258.6 -324.3C286 -305.6 320.2 -292 332.4 -265.1C344.6 -238.2 334.8 -198 351 -169C367.3 -140.1 409.7 -122.4 421.2 -96.1C432.7 -69.8 413.3 -34.9 394 0L0 0Z" fill="#e45a6d"></path><path d="M0 -206C15.4 -206 30.7 -205.9 46.6 -204.1C62.4 -202.4 78.8 -198.9 92.1 -191.2C105.4 -183.5 115.6 -171.5 129.3 -162.2C143 -152.8 160.1 -146 166.2 -132.6C172.3 -119.1 167.4 -99 175.5 -84.5C183.6 -70 204.8 -61.2 210.6 -48.1C216.3 -34.9 206.7 -17.5 197 0L0 0Z" fill="#ff6f61"></path></g></svg>